<?xml version="1.0" encoding="UTF-8" standalone="no"?>
<svg width="36px" height="31px" viewBox="0 0 36 31" version="1.1" xmlns="http://www.w3.org/2000/svg" xmlns:xlink="http://www.w3.org/1999/xlink">
    <!-- Generator: Sketch 39 (31667) - http://www.bohemiancoding.com/sketch -->
    <title>camera icon</title>
    <desc>Created with Sketch.</desc>
    <defs></defs>
    <g id="Symbols" stroke="none" stroke-width="1" fill="none" fill-rule="evenodd">
        <g id="Upload-image" transform="translate(-82.000000, -16.000000)" fill="#E0E7EE">
            <g id="Drag-a-file">
                <path d="M100.642879,30.142874 C100.642879,30.5044816 100.361629,30.7857319 100.000021,30.7857319 C98.935288,30.7857319 98.0714477,31.6495722 98.0714477,32.7143056 C98.0714477,33.0759132 97.7901974,33.3571635 97.4285898,33.3571635 C97.0669822,33.3571635 96.7857319,33.0759132 96.7857319,32.7143056 C96.7857319,30.9464464 98.2321622,29.5000161 100.000021,29.5000161 C100.361629,29.5000161 100.642879,29.7812664 100.642879,30.142874 L100.642879,30.142874 Z M105.142885,32.7544843 C105.142885,29.9218916 102.832614,27.611621 100.000021,27.611621 C97.1674288,27.611621 94.8571582,29.9218916 94.8571582,32.7544843 C94.8571582,35.5870769 97.1674288,37.8973475 100.000021,37.8973475 C102.832614,37.8973475 105.142885,35.5870769 105.142885,32.7544843 L105.142885,32.7544843 Z M84.5714316,44.285748 L84.5714316,41.7143164 L115.428611,41.7143164 L115.428611,44.285748 L84.5714316,44.285748 Z M107.714316,32.7544843 C107.714316,37.0134179 104.258955,40.4687792 100.000021,40.4687792 C95.7410878,40.4687792 92.2857265,37.0134179 92.2857265,32.7544843 C92.2857265,28.4955506 95.7410878,25.0401893 100.000021,25.0401893 C104.258955,25.0401893 107.714316,28.4955506 107.714316,32.7544843 L107.714316,32.7544843 Z M87.1428633,19.8571475 L87.1428633,17.2857158 L94.8571582,17.2857158 L94.8571582,19.8571475 L87.1428633,19.8571475 Z M84.5714316,23.7142949 L84.5714316,21.1428633 L97.5089471,21.1428633 L98.7946629,18.5714316 L115.428611,18.5714316 L115.428611,21.3437564 L115.428611,23.7142949 L84.5714316,23.7142949 Z M118.000043,18.5714316 C118.000043,17.1450907 116.854952,16 115.428611,16 L84.5714316,16 C83.1450907,16 82,17.1450907 82,18.5714316 L82,44.285748 C82,45.712089 83.1450907,46.8571796 84.5714316,46.8571796 L115.428611,46.8571796 C116.854952,46.8571796 118.000043,45.712089 118.000043,44.285748 L118.000043,18.5714316 Z" id="camera-icon"></path>
            </g>
        </g>
    </g>
</svg>