<?xml version="1.0" encoding="UTF-8" standalone="no"?>
<svg width="12px" height="13px" viewBox="0 0 12 13" version="1.1" xmlns="http://www.w3.org/2000/svg" xmlns:xlink="http://www.w3.org/1999/xlink">
    <!-- Generator: Sketch 3.8.3 (29802) - http://www.bohemiancoding.com/sketch -->
    <title>avatar</title>
    <desc>Created with Sketch.</desc>
    <defs></defs>
    <g id="Symbols" stroke="none" stroke-width="1" fill="none" fill-rule="evenodd">
        <g id="avatar-female" fill="#445870">
            <g id="avatar">
                <g>
                    <path d="M5.54095847,9.27572068 L5.21584805,9.11603791 C4.70256232,9.24510566 4.18750967,9.29972812 4.18750967,9.29972812 C4.18750967,9.29972812 4.86931392,10.1838201 5.54095847,10.1838201 C6.21260302,10.1838201 6.89440727,9.29972812 6.89440727,9.29972812 C6.89440727,9.29972812 6.37957549,9.24510566 5.86628975,9.11603791 L5.54095847,9.27572068 L5.54095847,9.27572068 Z M6.25032359,6.22136318 L6.41652473,6.36849782 C6.54773616,6.22727484 6.69890968,6.12327341 6.85972778,6.0584641 C6.83864424,6.09699937 6.82451378,6.14013259 6.81980363,6.18633112 C6.80073871,6.37419054 6.94114616,6.54212547 7.13381389,6.56073625 C7.32625731,6.57956598 7.49829008,6.4422841 7.51735498,6.25420573 C7.52677529,6.16071392 7.49694432,6.07269588 7.44109535,6.00525916 C7.63869752,6.04620288 7.81230034,6.14648215 7.9293813,6.29712 L8.10814286,6.16443608 C7.92063388,5.92402857 7.62501565,5.77842658 7.29709922,5.76441376 C6.91310953,5.75259043 6.53898874,5.91045365 6.25032359,6.22136318 L6.25032359,6.22136318 L6.25032359,6.22136318 Z M8.7904423,8.2197232 C8.78999371,8.22125585 8.78976942,8.22278851 8.78954513,8.22432116 C8.78864795,8.22738646 8.78819936,8.23045177 8.78752649,8.23373603 C8.76801299,8.31628032 8.74401363,8.3983867 8.71664989,8.47939834 C8.71530412,8.48333944 8.71373408,8.4870616 8.71261261,8.4910027 C8.68502457,8.57026274 8.65407213,8.64908488 8.61975529,8.72681226 C8.61908241,8.72834491 8.61863383,8.72965861 8.61818524,8.73119126 C8.24249439,9.57765336 7.4749636,10.315954 6.80298165,10.8037754 C6.80029013,10.805746 6.79737432,10.8077166 6.7949071,10.809906 C6.64821944,10.9156591 6.50669054,11.0098077 6.37480622,11.0901625 C6.372339,11.0916952 6.37009608,11.0932278 6.36762885,11.0945416 C6.3046025,11.1328579 6.24426768,11.1678899 6.18617578,11.1998567 C6.17922269,11.2037978 6.17204532,11.207301 6.16531652,11.2112421 C6.1081218,11.2421141 6.05339429,11.2707966 6.00247978,11.2953191 L6.00135832,11.2957569 C5.95223814,11.3194036 5.90715524,11.3391091 5.86476385,11.3559683 C5.85825935,11.3588147 5.85130627,11.361661 5.84457748,11.3642884 C5.8051019,11.379615 5.76876643,11.3918762 5.73669252,11.4010721 C5.73063661,11.4028237 5.72480499,11.4041374 5.71897338,11.405451 C5.68734806,11.4135522 5.65841425,11.4192449 5.63620924,11.4201208 C5.61041554,11.419026 5.57744447,11.4124575 5.53998752,11.4021668 C5.53572596,11.4010721 5.53236157,11.4001963 5.5278757,11.3991015 C5.49086735,11.388154 5.44847596,11.3728275 5.40204731,11.3539977 C5.39531851,11.3511514 5.38903831,11.3487429 5.38253381,11.3458966 C5.3345351,11.3257531 5.28249911,11.3016686 5.22642585,11.2738619 C5.22036994,11.2707966 5.21408973,11.2677313 5.20803382,11.264447 C5.14859616,11.2342319 5.08579411,11.2007325 5.01917908,11.1624161 C5.01760903,11.1615403 5.01603898,11.1606646 5.01469322,11.1597888 C4.73208398,10.9975465 4.3931772,10.7652402 4.05449471,10.479729 C4.00425306,10.4376905 3.9546843,10.3941193 3.90466695,10.3498913 L3.90287261,10.3481398 C3.90197544,10.3474829 3.90130256,10.346826 3.90040539,10.3461692 C3.85330385,10.3041307 3.80665089,10.2609975 3.76022223,10.2172074 C3.75596066,10.2130474 3.75147481,10.2093252 3.74743753,10.2051651 C3.62519783,10.0891215 3.50542533,9.96629027 3.39081159,9.8377664 C3.38632573,9.83294957 3.38206416,9.82769469 3.37757831,9.82287776 C3.32240221,9.76069594 3.26857189,9.69741928 3.2163116,9.63282886 C3.21541443,9.63151519 3.21429297,9.63020151 3.21317151,9.62888775 C3.1582197,9.56101319 3.10506226,9.49138694 3.05392344,9.42066598 C3.04898899,9.41387851 3.04405455,9.4068721 3.0393444,9.39986569 L3.03014838,9.38650972 C2.99919594,9.34315755 2.96891638,9.29936747 2.93998258,9.2551395 C2.93190802,9.24309723 2.92450635,9.2303981 2.91643181,9.21791793 C2.9132917,9.21331997 2.9101516,9.20828412 2.90723579,9.20346721 C2.88211497,9.16405615 2.85766703,9.12442613 2.83411626,9.08435821 C2.83142474,9.07976025 2.82895752,9.07538125 2.82626601,9.07078329 C2.8166214,9.05414306 2.80720109,9.03750283 2.79778079,9.02064366 C2.77737012,8.98385999 2.75718374,8.94685738 2.73789454,8.90963581 C2.7295957,8.89343349 2.72152115,8.87723115 2.71322231,8.86080988 L2.70290483,8.83979065 C2.68518568,8.80388278 2.66813941,8.76753702 2.6522146,8.73097231 C2.64122424,8.70644987 2.63068247,8.68214638 2.62058928,8.65762394 C2.60556165,8.62149713 2.59165548,8.58493242 2.5781979,8.54836771 C2.56900188,8.52296946 2.55958157,8.49779017 2.55105844,8.47239192 C2.53894662,8.43670302 2.52795626,8.4005762 2.51741448,8.36401149 C2.50978852,8.3375185 2.50171397,8.31080655 2.49498518,8.28409461 C2.48534058,8.24621619 2.47749032,8.20811883 2.46964007,8.17024041 C2.46425704,8.14549902 2.45842542,8.12075764 2.45416385,8.09557834 C2.44676218,8.05353987 2.44182773,8.01106349 2.43666899,7.96836817 C2.43487464,7.95347955 2.43285601,7.93880988 2.43106167,7.9241402 C2.43038878,7.91757169 2.42926732,7.91100318 2.42859444,7.90443467 C2.42298711,7.84028221 2.41962272,7.77612975 2.41962272,7.71153939 L2.41962272,7.38464649 L2.08475321,7.38311383 C1.46660158,7.38048643 1.39303346,6.28201243 1.39236058,6.27172177 L1.38899619,6.2375655 C1.37217421,6.13006087 1.39617356,6.03678801 1.46009708,5.96059328 C1.5271607,5.88045745 1.63392419,5.82615776 1.76087405,5.80754697 C1.77747174,5.80513852 1.79339654,5.80404378 1.80954564,5.80404378 C1.83713369,5.80404378 1.86427314,5.80689013 1.89096401,5.81083123 L2.26373906,5.86513093 L2.27697234,5.49751325 C2.28235538,5.35234916 2.29155139,5.21375358 2.30186887,5.07756644 C2.30568185,5.03158687 2.30971913,4.98648309 2.31398069,4.94159827 C2.32250383,4.85073387 2.33282131,4.76293476 2.34381167,4.67623042 C2.35412915,4.59828409 2.36511951,4.52165146 2.37723133,4.44677043 C2.38867027,4.37583051 2.4007821,4.3053285 2.41401539,4.23723493 C2.42881873,4.16344865 2.44496783,4.09207083 2.46178981,4.02178776 C2.46829431,3.99507582 2.4750231,3.96902073 2.48175189,3.94252773 C2.54477823,3.69883597 2.62148645,3.47506869 2.7136709,3.27232065 C2.71389519,3.27144485 2.71434378,3.270788 2.71456807,3.26991219 C4.69664568,3.32618244 5.78042967,3.91778634 7.16633637,4.90656621 C7.29620205,4.99918221 7.41395589,5.09464458 7.52498095,5.19142064 C7.51174766,5.19054483 7.50120589,5.18726058 7.48752402,5.18660373 C6.95774384,5.15792124 6.41831908,5.41912903 6.1435601,5.57786804 L6.25794955,5.76638431 C6.46138335,5.64858901 6.98735053,5.37752845 7.47473931,5.4051162 C7.6070722,5.41234156 7.7167515,5.436864 7.81252463,5.46817391 C8.5421499,6.24807512 8.76397572,7.15584335 8.79425528,8.19936081 C8.79268523,8.20592933 8.79201235,8.21293574 8.7904423,8.2197232 L8.7904423,8.2197232 L8.7904423,8.2197232 Z M11.5961239,6.05605565 C11.4839775,3.97602714 9.86323589,-0.0198171062 5.48413856,0.0896580786 C3.40314771,0.141549317 -0.459627069,1.84126103 0.0450322773,6.98659472 C0.317548324,9.76485598 1.16649749,12.0771908 1.16649749,12.0771908 C1.16649749,12.0771908 1.83937662,12.2414036 3.12906161,11.256127 C3.27238487,11.1516876 3.4130166,11.039585 3.55252687,10.9239792 C4.07512966,11.370638 4.61747024,11.7093542 5.03869257,11.9002789 C5.03914116,11.9004978 5.03958975,11.9007169 5.04003834,11.9009358 C5.12347534,11.9388141 5.2022022,11.9707809 5.27487314,11.996836 C5.2764432,11.9974929 5.27756467,11.9977118 5.27913472,11.9981498 C5.35090849,12.023548 5.41729923,12.0434725 5.47673689,12.0563906 L5.47920411,12.0570474 C5.53886606,12.0701844 5.59157493,12.0769719 5.63620924,12.0769719 C5.66290011,12.0769719 5.69340396,12.0736876 5.72547788,12.0690896 C5.73489818,12.067776 5.74499136,12.0655865 5.75463597,12.0638348 C5.77975679,12.0592368 5.80622337,12.0535442 5.83426,12.0465378 C5.84480177,12.0436914 5.85556784,12.041064 5.86678249,12.0377797 C5.90065074,12.0283649 5.93631333,12.0174174 5.97354598,12.0047182 C5.97870471,12.0027477 5.98363916,12.0012151 5.98924649,11.9992445 C6.08098235,11.9670588 6.1825871,11.9245824 6.29136922,11.8731291 L6.30706973,11.8654658 C6.3597786,11.8405055 6.41383322,11.8131366 6.46968219,11.7837973 C6.47125224,11.7829215 6.472598,11.7822647 6.47416805,11.7813889 C6.59371623,11.7183312 6.71932034,11.6460775 6.84918602,11.564628 C6.83684989,11.5773272 6.82989682,11.5845525 6.82989682,11.5845525 C6.82989682,11.5845525 11.9179845,12.0252996 11.5961239,6.05605565 L11.5961239,6.05605565 L11.5961239,6.05605565 Z M4.9507697,6.22136318 C4.66210456,5.91045365 4.28932952,5.75324729 3.90421836,5.76441376 C3.57630194,5.77842658 3.28068371,5.92424752 3.09339901,6.16443608 L3.27216057,6.29712 C3.38901724,6.14648215 3.56262006,6.04620288 3.76022223,6.00525916 C3.70437327,6.07269588 3.67454229,6.16071392 3.6839626,6.25420573 C3.7032518,6.4422841 3.87506027,6.57956598 4.06772799,6.56073625 C4.25994713,6.54212547 4.40057887,6.37419054 4.38128967,6.18633112 C4.37657951,6.13991364 4.36267334,6.09699937 4.3413655,6.05824515 C4.50240791,6.12305446 4.65335712,6.22727484 4.78456856,6.36849782 L4.9507697,6.22136318 L4.9507697,6.22136318 Z M5.60054665,8.21403049 C5.87508134,8.21403049 6.09825291,8.01697515 6.09825291,7.77525395 L5.87395987,7.77525395 C5.87395987,7.89655245 5.75127158,7.99508012 5.60054665,7.99508012 C5.44982172,7.99508012 5.32713343,7.89655245 5.32713343,7.77525395 L5.10284039,7.77525395 C5.10284039,8.01697515 5.32601196,8.21403049 5.60054665,8.21403049 L5.60054665,8.21403049 L5.60054665,8.21403049 Z M4.94314374,5.76616536 L5.05753319,5.57808699 C4.78299851,5.41912903 4.24357374,5.15945389 3.71379358,5.18660373 C2.96286047,5.22842325 2.71411948,5.70135605 2.703802,5.72149949 L2.90431998,5.81958925 C2.91261882,5.80404378 3.11156676,5.43927245 3.72657828,5.4051162 C4.21710716,5.37928006 4.73993425,5.64858901 4.94314374,5.76616536 L4.94314374,5.76616536 L4.94314374,5.76616536 Z" id="Shape"></path>
                </g>
            </g>
        </g>
    </g>
</svg>