<?xml version="1.0" encoding="utf-8"?>
<!-- Generator: Adobe Illustrator 19.0.0, SVG Export Plug-In . SVG Version: 6.00 Build 0)  -->
<svg version="1.1" id="Calque_1" xmlns:sketch="http://www.bohemiancoding.com/sketch/ns"
	 xmlns="http://www.w3.org/2000/svg" xmlns:xlink="http://www.w3.org/1999/xlink" x="0px" y="0px" viewBox="-247 386 116 22"
	 style="enable-background:new -247 386 116 22;" xml:space="preserve">
<style type="text/css">
	.st0{fill:#FFFFFF;}
</style>
<g id="logo">
	<path class="st0" d="M-226,386.2v21.1h3v-21.1H-226z M-223.4,406.2h-2.1v-3.4h2.1V406.2z M-223.4,390h-2.1v-0.3h2.1V390z
		 M-223.4,389.5h-2.1v-0.3h2.1V389.5z M-223.4,389h-2.1v-0.3h2.1V389z M-223.4,388.5h-2.1v-0.3h2.1V388.5z"/>
	<path class="st0" d="M-228.8,386.9l-7,19.9l2.9,1l7-19.9L-228.8,386.9z M-233.1,406.6l-2-0.7l1.1-3.2l2,0.7L-233.1,406.6z
		 M-227.6,391.2l-2-0.7l0.1-0.3l2,0.7L-227.6,391.2z M-227.5,390.8l-2-0.7l0.1-0.3l2,0.7L-227.5,390.8z M-227.3,390.3l-2-0.7
		l0.1-0.3l2,0.7L-227.3,390.3z M-227.1,389.8l-2-0.7l0.1-0.3l2,0.7L-227.1,389.8z"/>
	<g>
		<path class="st0" d="M-246.4,402.7c0-4.7,3.1-8.5,7.5-9.5c0.4-0.1,0.8-0.1,1.2-0.2c0.6,0,1,0.2,1.1,0.8c0.1,0.6-0.2,1.1-0.9,1.2
			c-1.4,0.2-2.8,0.7-3.9,1.6c-2.2,1.7-2.9,4.1-2.8,6.8c0,0.3,0.1,0.6,0,0.9c-0.2,0.5-0.5,0.8-1,0.8c-0.5,0-0.9-0.3-1-0.8
			C-246.4,403.8-246.3,403.2-246.4,402.7z"/>
		<path class="st0" d="M-241.8,402.6c0-2.6,1.8-4.7,4.4-5.2c0.6-0.1,1.2-0.1,1.3,0.6c0.1,0.6-0.2,0.9-0.8,1.1c-2.1,0.6-3,1.8-3.1,4
			c0,0.3,0,0.6-0.2,0.9c-0.4,0.6-1.1,0.5-1.4-0.1C-241.8,403.6-241.8,403.2-241.8,402.6z"/>
	</g>
</g>
<g id="medlib.fr">
	<path class="st0" d="M-200.8,403.9c0,0.5-0.4,0.7-0.8,0.7c-0.5,0-0.8-0.2-0.8-0.7v-5.8c0-1.5-0.4-2.4-1.7-2.4c-1,0-1.6,0.6-2,1.2
		c-0.3,0.4-0.5,1.1-0.5,1.6v5.3c0,0.5-0.3,0.7-0.8,0.7c-0.5,0-0.8-0.2-0.8-0.7v-5.8c0-1.5-0.5-2.4-1.7-2.4c-1,0-1.5,0.6-2,1.2
		c-0.3,0.5-0.5,1.1-0.5,1.7v5.2c0,0.5-0.3,0.7-0.8,0.7c-0.5,0-0.8-0.2-0.8-0.7v-8.8c0-0.5,0.3-0.7,0.8-0.7c0.5,0,0.8,0.2,0.8,0.7
		v0.4c0,0.2-0.1,0.6-0.1,0.9c0.5-1.1,1.2-2.1,3-2.1c1.6,0,2.4,0.7,2.7,2c0.5-0.9,1.2-2,3.2-2c2.1,0,3,1.3,3,3.5V403.9z"/>
	<path class="st0" d="M-197.2,399.8c0,2.2,1.1,3.6,3.1,3.6c1.3,0,2-0.6,2.4-1.6c0.2-0.3,0.4-0.5,0.6-0.5c0.1,0,0.3,0,0.4,0.1
		c0.3,0.1,0.6,0.3,0.6,0.6c0,0.1,0,0.2-0.1,0.3c-0.6,1.2-1.6,2.4-4,2.4c-3,0-4.7-2.1-4.7-5.2c0-3.1,1.6-5.3,4.6-5.3
		c2.6,0,4.1,2.1,4.3,4.4c0,0.1,0,0.1,0,0.1c0,0.6-0.3,1-0.9,1H-197.2z M-191.8,398.5c0.2,0,0.3-0.1,0.3-0.2c0,0,0-0.1,0-0.1
		c-0.2-1.3-1-2.6-2.6-2.6c-1.7,0-2.7,1.2-2.9,2.9H-191.8z"/>
	<path class="st0" d="M-180.9,391.1c0-0.5,0.3-0.7,0.8-0.7c0.5,0,0.8,0.2,0.8,0.7v12.8c0,0.5-0.3,0.7-0.8,0.7
		c-0.5,0-0.8-0.3-0.8-0.7v-0.4c0-0.2,0-0.6,0.1-0.8c-0.6,1.3-1.6,2-3.3,2c-2.6,0-4.3-2.1-4.3-5.3c0-3.2,1.6-5.2,4.3-5.2
		c1.7,0,2.7,0.8,3.3,2.1c0-0.4-0.1-0.9-0.1-1.3V391.1z M-186.8,399.5c0,2.4,1,3.9,2.9,3.9c1.9,0,3.1-1.6,3.1-3.9
		c0-2.2-1.1-3.8-3.1-3.8C-185.7,395.7-186.8,397.2-186.8,399.5z"/>
	<path class="st0" d="M-176.7,391.1c0-0.5,0.3-0.7,0.8-0.7c0.5,0,0.8,0.2,0.8,0.7v12.8c0,0.5-0.3,0.7-0.8,0.7
		c-0.5,0-0.8-0.2-0.8-0.7V391.1z"/>
	<path class="st0" d="M-170.5,391.6c0,0.7-0.5,1.2-1.2,1.2c-0.7,0-1.2-0.5-1.2-1.2c0-0.7,0.5-1.2,1.2-1.2
		C-171,390.4-170.5,390.9-170.5,391.6z M-172.5,395.1c0-0.5,0.3-0.7,0.8-0.7c0.5,0,0.8,0.2,0.8,0.7v8.8c0,0.5-0.3,0.7-0.8,0.7
		c-0.5,0-0.8-0.2-0.8-0.7V395.1z"/>
	<path class="st0" d="M-166.7,404c0,0.4-0.3,0.7-0.8,0.7c-0.5,0-0.8-0.2-0.8-0.7v-12.8c0-0.5,0.3-0.7,0.8-0.7c0.5,0,0.8,0.2,0.8,0.7
		v3.9c0,0.4,0,0.9-0.1,1.3c0.7-1.3,1.7-2.1,3.4-2.1c2.7,0,4.2,2,4.2,5.2c0,3.2-1.6,5.3-4.3,5.3c-1.7,0-2.7-0.8-3.3-2.1
		c0,0.3,0.1,0.6,0.1,0.9V404z M-166.8,399.5c0,2.2,1.2,3.9,3.1,3.9c1.8,0,2.9-1.5,2.9-3.9c0-2.3-1-3.8-2.8-3.8
		C-165.6,395.7-166.8,397.3-166.8,399.5z"/>
	<path class="st0" d="M-154.4,403.4c0,0.8-0.5,1.3-1.2,1.3s-1.2-0.5-1.2-1.3c0-0.7,0.5-1.2,1.2-1.2S-154.4,402.6-154.4,403.4z"/>
	<path class="st0" d="M-150.5,393.2c0-2.3,1.4-3,2.8-3c0.6,0,1,0,1.5,0.2c0.3,0.1,0.5,0.4,0.5,0.6c0,0.1,0,0.2-0.1,0.3
		c-0.1,0.3-0.4,0.5-0.7,0.5c-0.1,0-0.2,0-0.3-0.1c-0.3-0.1-0.6-0.2-1-0.2c-0.7,0-1.2,0.4-1.2,1.7v1.1h2.2c0.5,0,0.7,0.3,0.7,0.7
		c0,0.4-0.2,0.7-0.7,0.7h-2.2v7.9c0,0.5-0.3,0.7-0.8,0.7c-0.5,0-0.8-0.2-0.8-0.7V396h-1.5c-0.4,0-0.6-0.3-0.6-0.7s0.2-0.7,0.6-0.7
		h1.5V393.2z"/>
	<path class="st0" d="M-144.2,395.1c0-0.5,0.3-0.7,0.8-0.7c0.5,0,0.8,0.2,0.8,0.7v0.4c0,0.3-0.1,0.6-0.1,0.8c0.3-0.9,1.2-2,2.8-2
		c0.1,0,0.3,0,0.4,0c0.3,0,0.5,0,0.7,0.1c0.4,0.1,0.6,0.3,0.6,0.6c0,0.1,0,0.2,0,0.3c-0.1,0.4-0.3,0.7-0.7,0.7c-0.1,0-0.1,0-0.2,0
		c-0.3-0.1-0.5-0.1-0.9-0.1c-0.8,0-1.4,0.4-1.8,1c-0.5,0.6-0.7,1.2-0.8,2v5c0,0.5-0.4,0.7-0.8,0.7c-0.5,0-0.8-0.2-0.8-0.7V395.1z"/>
</g>
</svg>
