<?xml version="1.0" encoding="UTF-8" standalone="no"?>
<svg width="11px" height="13px" viewBox="0 0 11 13" version="1.1" xmlns="http://www.w3.org/2000/svg" xmlns:xlink="http://www.w3.org/1999/xlink">
    <!-- Generator: Sketch 3.8.3 (29802) - http://www.bohemiancoding.com/sketch -->
    <title>avatar</title>
    <desc>Created with Sketch.</desc>
    <defs></defs>
    <g id="Symbols" stroke="none" stroke-width="1" fill="none" fill-rule="evenodd">
        <g id="avatar-male" transform="translate(-7.000000, -6.000000)">
            <g id="avatar-mal">
                <g id="avatar" transform="translate(7.000000, 6.000000)">
                    <path d="M9.54325629,5.19919672 C9.54074245,5.19919672 9.53873138,5.19995501 9.53646892,5.19995501 L9.53646892,2.9571722 C9.53646892,1.53334762 7.42509678,0.37947592 5.41402676,0.37947592 C3.40295673,0.37947592 1.46353108,1.53334762 1.46353108,2.9571722 L1.46353108,5.19995501 C1.46126862,5.19995501 1.45925755,5.19919672 1.45674371,5.19919672 C0.860712833,5.19919672 0.377050491,5.73126681 0.377050491,6.38744444 C0.377050491,7.04362208 0.860712833,7.57569216 1.45674371,7.57569216 C1.45925755,7.57569216 1.46126862,7.57493386 1.46353108,7.57493386 C1.46353108,7.57493386 1.30792453,9.01493541 1.30792453,9.89986527 C1.30792453,10.7847951 4.43740088,12.4826168 4.43740088,12.4826168 L5.46405213,12.5119376 L6.48542431,12.5116848 C6.48542431,12.5116848 9.66643433,10.7842896 9.66643433,9.89986527 C9.66643433,9.01544093 9.53646892,7.57493386 9.53646892,7.57493386 C9.53873138,7.57493386 9.54074245,7.57569216 9.54325629,7.57569216 C10.1392872,7.57569216 10.6229495,7.04362208 10.6229495,6.38744444 C10.6229495,5.73126681 10.1392872,5.19919672 9.54325629,5.19919672" id="Fill-1" fill="#FFFFFF"></path>
                    <path d="M9.56879688,7.19614041 L9.12359625,7.19588764 L9.16080105,7.609411 C9.16230935,7.62356582 9.28950953,9.04258788 9.28950953,9.89946084 C9.27970556,10.2432211 7.90790442,11.2967451 6.38929517,12.1323858 L5.84127859,12.1326386 L5.84127859,10.7793354 L5.08712732,10.7793354 L5.08712732,12.1217697 L4.5381052,12.1063511 C3.04010942,11.282843 1.68992728,10.241199 1.68515099,9.8997136 C1.68515099,9.04587382 1.83723817,7.63013772 1.83874646,7.61598288 L1.88399553,7.19588764 L1.43427001,7.19614041 C1.05719437,7.18223834 0.754276951,6.82482879 0.754276951,6.38754554 C0.754276951,5.95127335 1.05568607,5.59436934 1.4312534,5.57895069 L1.56473818,5.57895069 C1.61778015,6.55310654 2.42095123,7.3301058 3.40310756,7.3301058 C3.95590044,7.3301058 4.45137781,7.0831545 4.78948896,6.69440211 L4.78948896,7.38546131 C4.78948896,7.53332876 4.81940362,7.67462433 4.87345113,7.80277613 L4.36917532,7.80277613 C3.61175607,7.80277613 2.99561449,8.35102317 2.99561449,9.0251471 L2.99561449,11.0088459 L3.74976576,11.0088459 L3.74976576,9.0251471 C3.74976576,8.77364604 4.03332663,8.56107078 4.36917532,8.56107078 L6.5790899,8.56107078 C6.41367939,8.68821152 6.01071124,8.81484673 5.47149308,8.81484673 C5.02277308,8.81484673 4.59667762,8.72157648 4.38551526,8.57724774 L4.10270854,8.99532085 C4.40009553,9.19904935 4.91241562,9.32037649 5.47149308,9.32037649 C6.07506548,9.32037649 6.60825042,9.18312516 6.89734173,8.95361465 L6.58939663,8.56107078 L6.71232329,8.56107078 C7.04817199,8.56107078 7.33148147,8.77364604 7.33148147,9.0251471 L7.33148147,11.0088459 L8.08563273,11.0088459 L8.08563273,9.0251471 C8.08563273,8.35102317 7.46974253,7.80277613 6.71232329,7.80277613 L5.47652076,7.80277613 C5.36390083,7.698637 5.29225647,7.55076954 5.29225647,7.38546131 L5.29225647,5.68688129 L5.67813053,5.68688129 C5.7822034,6.61023141 6.56300134,7.3301058 7.50870702,7.3301058 C8.49111472,7.3301058 9.29378305,6.55310654 9.34732779,5.57920345 L9.56578027,5.57895069 C9.9428559,5.59259999 10.2457733,5.95000954 10.2457733,6.38754554 C10.2457733,6.82356497 9.94436421,7.18046898 9.56879688,7.19614041 L9.56879688,7.19614041 L9.56879688,7.19614041 Z M1.84075754,2.95702054 C1.84075754,2.85540907 1.8583544,2.7550614 1.88449831,2.65572481 C2.33849737,2.50153823 2.90863572,2.15878905 2.90863572,2.15878905 L3.72563291,2.72927938 L5.2653584,2.15878905 L6.4908542,2.88548808 L7.49638922,2.15878905 L8.34480938,2.88548808 L9.04994081,2.49142763 C9.11856858,2.64435038 9.15929274,2.80030632 9.15929274,2.95702054 L9.15929274,5.0246373 C8.82947726,4.69022935 8.13163596,4.56056097 7.50920978,4.56056097 C6.797291,4.56056097 5.98708116,4.72991343 5.74147923,5.18135152 L5.17008396,5.18135152 C4.92448204,4.72991343 4.11502635,4.56056097 3.40310756,4.56056097 C2.83146091,4.56056097 2.19671693,4.67000816 1.84075754,4.94653295 L1.84075754,2.95702054 L1.84075754,2.95702054 Z M10.9999246,6.38754554 C10.9999246,5.6608465 10.5378812,5.04789166 9.91344401,4.87146177 L9.91344401,2.95702054 C9.91344401,1.2147122 7.54188967,0.000176935418 5.41417758,0.000176935418 C3.32442444,0.000176935418 1.08660627,1.18817189 1.08660627,2.95702054 L1.08660627,4.87146177 C0.461917646,5.04789166 0.000125691877,5.6608465 0.000125691877,6.38754554 C0.000125691877,7.10084805 0.445326319,7.70470336 1.05266947,7.89351872 C1.00591209,8.38337706 0.93099973,9.26957075 0.93099973,9.8997136 C0.93099973,10.9026847 3.25805914,12.2736814 4.25831509,12.8163676 L4.33724959,12.8590849 L5.45389622,12.8906805 L5.45917528,12.8909333 L6.5805982,12.8906805 L6.66456038,12.8454356 C7.68040212,12.2936498 10.0436608,10.9021791 10.0436608,9.8997136 C10.0436608,9.27032905 9.98081485,8.38337706 9.94185037,7.89554085 C10.5517074,7.70824207 10.9999246,7.10312293 10.9999246,6.38754554 L10.9999246,6.38754554 L10.9999246,6.38754554 Z" id="Fill-3" fill="#445870"></path>
                </g>
            </g>
        </g>
    </g>
</svg>